<svg width="39" height="52" viewBox="0 0 39 52" fill="none" xmlns="http://www.w3.org/2000/svg">
<path d="M28.6 49.4C28.6 50.28 27.88 51 27 51H3.00002C2.12002 51 1.40002 50.28 1.40002 49.4V12.6C1.40002 11.72 2.12002 11 3.00002 11H27C27.88 11 28.6 11.72 28.6 12.6V49.4Z" fill="#231C1C"/>
<path d="M38.2 49.4C38.2 50.28 37.48 51 36.6 51H28.6V11H36.6C37.48 11 38.2 11.72 38.2 12.6V49.4Z" fill="#231C1C"/>
<path d="M36.6 51.8H2.99998C1.63998 51.8 0.599976 50.76 0.599976 49.4V12.6C0.599976 11.24 1.63998 10.2 2.99998 10.2H36.6C37.96 10.2 39 11.24 39 12.6V49.4C39 50.76 37.96 51.8 36.6 51.8ZM2.99998 11.8C2.51998 11.8 2.19998 12.12 2.19998 12.6V49.4C2.19998 49.88 2.51998 50.2 2.99998 50.2H36.6C37.08 50.2 37.4 49.88 37.4 49.4V12.6C37.4 12.12 37.08 11.8 36.6 11.8H2.99998Z" fill="#231C1C"/>
<path d="M27 51.8H2.99998C1.63998 51.8 0.599976 50.76 0.599976 49.4V12.6C0.599976 11.24 1.63998 10.2 2.99998 10.2H27C28.36 10.2 29.4 11.24 29.4 12.6V49.4C29.4 50.76 28.36 51.8 27 51.8ZM2.99998 11.8C2.51998 11.8 2.19998 12.12 2.19998 12.6V49.4C2.19998 49.88 2.51998 50.2 2.99998 50.2H27C27.48 50.2 27.8 49.88 27.8 49.4V12.6C27.8 12.12 27.48 11.8 27 11.8H2.99998ZM32.6 11H34.2V45.4H32.6V11Z" fill="#231C1C"/>
<path d="M28.36 51.56L27.24 50.44L33.4799 44.2L38.84 50.44L37.56 51.56L33.32 46.6L28.36 51.56ZM25.4 10.2H23.7999C23.7999 5.72002 20.1999 2.12002 15.7999 2.12002C11.3999 2.12002 7.79995 5.72002 7.79995 10.2H6.19995C6.19995 4.84002 10.5199 0.52002 15.7999 0.52002C21.0799 0.52002 25.4 4.84002 25.4 10.2Z" fill="#231C1C"/>
<path d="M33.4 10.2H31.7999C31.7999 5.72002 28.1999 2.12002 23.7999 2.12002C19.3999 2.12002 15.7999 5.72002 15.7999 10.2H14.2C14.2 4.84002 18.5199 0.52002 23.7999 0.52002C29.0799 0.52002 33.4 4.84002 33.4 10.2Z" fill="#231C1C"/>
</svg>
