<svg width="142" height="130" viewBox="0 0 142 130" fill="none" xmlns="http://www.w3.org/2000/svg">
<path d="M24.1375 23.7558L24.2192 24.6665H25.1335H136.171C136.171 24.6665 136.171 24.6665 136.171 24.6665C136.905 24.6669 137.624 24.8338 138.285 25.1562C138.945 25.4781 139.523 25.946 139.975 26.5243C140.428 27.1025 140.742 27.7759 140.894 28.4934C141.047 29.2109 141.034 29.9536 140.856 30.6653L129.006 78.004C129.006 78.0041 129.006 78.0041 129.006 78.0042C128.756 79.0007 128.194 79.8918 127.402 80.5475C126.61 81.2032 125.628 81.5893 124.601 81.6492L124.6 81.6492L31.4006 87.1222L29.98 87.2056L30.5398 88.5139C32.3599 92.7674 36.5756 95.679 41.4163 95.679H106.546C110.97 95.6839 115.21 97.4411 118.338 100.565C121.465 103.688 123.224 107.923 123.229 112.34C123.224 116.756 121.465 120.991 118.338 124.114C115.21 127.238 110.97 128.995 106.546 129C95.0145 128.999 86.9198 117.517 90.8596 106.668L91.3467 105.327H89.9196H57.9984H56.5711L57.0585 106.668C61.0043 117.529 52.891 129 41.3772 129C27.5018 129 19.7132 112.962 28.2373 102.088L28.8519 101.305L28.0703 100.687C23.2702 96.8938 20.4958 91.3095 20.0447 86.1996L20.0446 86.198L13.335 11.5585L13.2531 10.648H12.339H5.83108C4.5494 10.648 3.32047 10.1395 2.41456 9.23466C1.50869 8.32989 1 7.10301 1 5.824C1 4.54499 1.50869 3.31812 2.41456 2.41335C3.32047 1.50854 4.5494 1 5.83108 1L17.6754 1L17.6761 1C18.8836 0.999222 20.0475 1.45 20.9385 2.26325C21.8295 3.07645 22.3833 4.19313 22.491 5.39331C22.491 5.39334 22.491 5.39337 22.491 5.39339L24.1375 23.7558ZM41.3243 119.351L41.3707 119.353L41.4171 119.351C43.2218 119.267 44.925 118.492 46.1728 117.186C47.4206 115.881 48.117 114.145 48.117 112.34C48.117 110.534 47.4206 108.798 46.1728 107.493C44.925 106.187 43.2218 105.412 41.4171 105.328L41.3707 105.326L41.3243 105.328C39.5196 105.412 37.8164 106.187 36.5687 107.493C35.3208 108.798 34.6244 110.534 34.6244 112.34C34.6244 114.145 35.3208 115.881 36.5687 117.186C37.8164 118.492 39.5196 119.267 41.3243 119.351ZM106.501 119.351L106.547 119.353L106.594 119.351C108.398 119.267 110.102 118.492 111.349 117.186C112.597 115.881 113.294 114.145 113.294 112.34C113.294 110.534 112.597 108.798 111.349 107.493C110.102 106.187 108.398 105.412 106.594 105.328L106.547 105.326L106.501 105.328C104.696 105.412 102.993 106.187 101.745 107.493C100.497 108.798 99.801 110.534 99.801 112.34C99.801 114.145 100.497 115.881 101.745 117.186C102.993 118.492 104.696 119.267 106.501 119.351ZM119.758 72.2708L120.7 72.2156V71.3893L129.67 35.5639L129.981 34.321H128.7H26.1813H25.0872L25.1853 35.4106L28.8948 76.6271L28.9817 77.5925L29.9493 77.5358L119.758 72.2708Z" fill="#0C0C0C" stroke="black" stroke-width="2"/>
</svg>
