<svg width="24" height="25" viewBox="0 0 24 25" fill="none" xmlns="http://www.w3.org/2000/svg">
<g clip-path="url(#clip0_20_361)">
<path d="M11.9998 9.95572V14.603H18.458C18.1744 16.0975 17.3234 17.363 16.047 18.2139L19.9416 21.2358C22.2107 19.1413 23.5198 16.0649 23.5198 12.4104C23.5198 11.5595 23.4434 10.7412 23.3015 9.95585L11.9998 9.95572Z" fill="#4285F4"/>
<path d="M5.27468 14.4216L4.39631 15.094L1.28717 17.5158C3.26171 21.4321 7.30868 24.1376 11.9996 24.1376C15.2395 24.1376 17.9558 23.0685 19.9413 21.2358L16.0468 18.214C14.9777 18.934 13.614 19.3704 11.9996 19.3704C8.87957 19.3704 6.22874 17.2649 5.27958 14.4285L5.27468 14.4216Z" fill="#34A853"/>
<path d="M1.28718 6.7594C0.469042 8.37388 0 10.1957 0 12.1375C0 14.0793 0.469042 15.9011 1.28718 17.5156C1.28718 17.5265 5.27997 14.4174 5.27997 14.4174C5.03998 13.6974 4.89812 12.9339 4.89812 12.1374C4.89812 11.3409 5.03998 10.5773 5.27997 9.85733L1.28718 6.7594Z" fill="#FBBC05"/>
<path d="M11.9998 4.91575C13.7671 4.91575 15.338 5.52664 16.5925 6.70484L20.0289 3.26852C17.9452 1.32674 15.2398 0.137573 11.9998 0.137573C7.30893 0.137573 3.26171 2.83211 1.28717 6.7594L5.27984 9.85758C6.22888 7.02119 8.87982 4.91575 11.9998 4.91575Z" fill="#EA4335"/>
</g>
<defs>
<clipPath id="clip0_20_361">
<rect width="24" height="24" fill="white" transform="translate(0 0.137573)"/>
</clipPath>
</defs>
</svg>
