<svg width="101" height="101" viewBox="0 0 101 101" fill="none" xmlns="http://www.w3.org/2000/svg">
<mask id="mask0_171_57" style="mask-type:alpha" maskUnits="userSpaceOnUse" x="0" y="0" width="101" height="101">
<rect x="0.507812" y="0.396729" width="100" height="100" fill="#D9D9D9"/>
</mask>
<g mask="url(#mask0_171_57)">
<path d="M40.6118 57.48L44.3618 45.5008L34.466 37.7925H46.5493L50.5077 25.3966L54.3618 37.7925H66.5493L56.6535 45.5008L60.2993 57.48L50.5077 50.0842L40.6118 57.48ZM25.9243 96.23V64.5633C22.7993 61.2994 20.5597 57.723 19.2056 53.8341C17.8514 49.9453 17.1743 46.0216 17.1743 42.0633C17.1743 32.6189 20.3688 24.7022 26.7577 18.3133C33.1465 11.9244 41.0632 8.72998 50.5077 8.72998C59.9521 8.72998 67.8688 11.9244 74.2577 18.3133C80.6465 24.7022 83.841 32.6189 83.841 42.0633C83.841 46.0216 83.1639 49.9453 81.8097 53.8341C80.4556 57.723 78.216 61.2994 75.091 64.5633V96.23L50.5077 88.0008L25.9243 96.23ZM50.5077 69.1467C58.0771 69.1467 64.4833 66.5251 69.7264 61.2821C74.9695 56.039 77.591 49.6328 77.591 42.0633C77.591 34.4939 74.9695 28.0876 69.7264 22.8446C64.4833 17.6015 58.0771 14.98 50.5077 14.98C42.9382 14.98 36.532 17.6015 31.2889 22.8446C26.0458 28.0876 23.4243 34.4939 23.4243 42.0633C23.4243 49.6328 26.0458 56.039 31.2889 61.2821C36.532 66.5251 42.9382 69.1467 50.5077 69.1467ZM32.1743 87.48L50.5077 81.7508L68.841 87.48V69.6675C66.0632 71.6814 63.0771 73.1397 59.8827 74.0425C56.6882 74.9453 53.5632 75.3967 50.5077 75.3967C47.4521 75.3967 44.3271 74.9453 41.1327 74.0425C37.9382 73.1397 34.9521 71.6814 32.1743 69.6675V87.48Z" fill="#1C1B1F"/>
</g>
</svg>
