<svg width="101" height="101" viewBox="0 0 101 101" fill="none" xmlns="http://www.w3.org/2000/svg">
<mask id="mask0_171_45" style="mask-type:alpha" maskUnits="userSpaceOnUse" x="0" y="0" width="101" height="101">
<rect x="0.117676" y="0.95459" width="100" height="100" fill="#D9D9D9"/>
</mask>
<g mask="url(#mask0_171_45)">
<path d="M14.7012 34.2878H85.5345V23.8711H14.7012V34.2878ZM8.45117 23.8711C8.45117 22.2044 9.07617 20.7461 10.3262 19.4961C11.5762 18.2461 13.0345 17.6211 14.7012 17.6211H85.5345C87.2012 17.6211 88.6595 18.2461 89.9095 19.4961C91.1595 20.7461 91.7845 22.2044 91.7845 23.8711V48.7669H14.7012V78.0378H38.972V84.2878H14.7012C13.0345 84.2878 11.5762 83.6628 10.3262 82.4128C9.07617 81.1628 8.45117 79.7044 8.45117 78.0378V23.8711ZM62.4095 92.6211L44.7012 74.9128L49.1803 70.4336L62.4095 83.6628L87.4095 58.6628L91.7845 63.2461L62.4095 92.6211ZM14.7012 23.8711V78.0378V61.5794V75.1211V23.8711Z" fill="#1C1B1F"/>
</g>
</svg>
