<svg width="50" height="48" viewBox="0 0 50 48" fill="none" xmlns="http://www.w3.org/2000/svg">
<path d="M17.4567 18.8936L17.4563 18.8932C15.3602 16.8016 14.3333 14.3557 14.3333 11.5068C14.3333 8.59838 15.3635 6.1419 17.4522 4.08183C19.5414 2.0213 22.0385 1 25 1C27.9615 1 30.4586 2.0213 32.5478 4.08183C34.6365 6.1419 35.6667 8.59838 35.6667 11.5068C35.6667 14.3557 34.6398 16.8016 32.5437 18.8932L32.5433 18.8936C30.4532 20.9812 27.9575 22.0137 25 22.0137C22.0425 22.0137 19.5468 20.9812 17.4567 18.8936ZM4 43.0685V44.0685H5H45H46V43.0685V40.6849C46 39.8152 45.7383 39.0111 45.2322 38.2979C44.7484 37.6163 44.1058 37.0578 43.332 36.6127L43.2976 36.5929L43.2618 36.5759C40.3157 35.1789 37.3234 34.1007 34.2853 33.3431L34.2844 33.3429C31.2324 32.5848 28.137 32.2055 25 32.2055C21.863 32.2055 18.7676 32.5848 15.7156 33.3429L15.7147 33.3431C12.6766 34.1007 9.68428 35.1789 6.73821 36.5759L6.70236 36.5929L6.66797 36.6127C5.89423 37.0578 5.25159 37.6163 4.76784 38.2979C4.26173 39.0111 4 39.8152 4 40.6849V43.0685ZM30.4128 6.15L30.4116 6.14881C28.9179 4.67808 27.0959 3.93151 25 3.93151C22.904 3.93151 21.0828 4.67814 19.5911 6.14941C18.0971 7.62292 17.3333 9.42655 17.3333 11.5068C17.3333 13.5866 18.0968 15.3891 19.5905 16.8604C21.0821 18.3341 22.9035 19.0822 25 19.0822C27.0965 19.0822 28.9186 18.3341 30.4122 16.861C31.9043 15.3893 32.6667 13.5866 32.6667 11.5068C32.6667 9.42711 31.9044 7.62366 30.4128 6.15ZM1 47V40.6849C1 39.2947 1.3854 38.0034 2.1722 36.7909C2.96082 35.5756 4.01788 34.6258 5.36266 33.9362C8.57489 32.3798 11.8226 31.2145 15.1065 30.4373C18.3926 29.6614 21.6899 29.274 25 29.274C28.3098 29.274 31.6081 29.6613 34.8962 30.4372C38.1781 31.2143 41.4249 32.3797 44.6374 33.9362C45.9821 34.6258 47.0392 35.5756 47.8278 36.7909C48.6146 38.0034 49 39.2947 49 40.6849V47H1Z" fill="#0C0C0C" stroke="black" stroke-width="2"/>
</svg>
