<svg width="100" height="101" viewBox="0 0 100 101" fill="none" xmlns="http://www.w3.org/2000/svg">
<mask id="mask0_171_71" style="mask-type:alpha" maskUnits="userSpaceOnUse" x="0" y="0" width="100" height="101">
<rect y="0.499268" width="100" height="100" fill="#D9D9D9"/>
</mask>
<g mask="url(#mask0_171_71)">
<path d="M44.6873 62.9991H55.3123L52.7082 47.8949C54.0971 47.2699 55.2082 46.3498 56.0415 45.1345C56.8748 43.9192 57.2915 42.5824 57.2915 41.1241C57.2915 39.1102 56.5797 37.3915 55.1561 35.9679C53.7325 34.5442 52.0137 33.8324 49.9998 33.8324C47.986 33.8324 46.2672 34.5442 44.8436 35.9679C43.42 37.3915 42.7082 39.1102 42.7082 41.1241C42.7082 42.5824 43.1248 43.9192 43.9582 45.1345C44.7915 46.3498 45.9026 47.2699 47.2915 47.8949L44.6873 62.9991ZM49.9998 92.0616C40.2776 89.631 32.2915 83.9887 26.0415 75.1345C19.7915 66.2804 16.6665 56.5755 16.6665 46.0199V21.2283L49.9998 8.72827L83.3332 21.2283V46.0199C83.3332 56.5755 80.2082 66.2804 73.9582 75.1345C67.7082 83.9887 59.7221 89.631 49.9998 92.0616ZM49.9998 85.6033C57.986 82.9644 64.4964 77.9817 69.5311 70.6554C74.5658 63.329 77.0832 55.1172 77.0832 46.0199V25.6033L49.9998 15.3949L22.9165 25.6033V46.0199C22.9165 55.1172 25.4339 63.329 30.4686 70.6554C35.5033 77.9817 42.0137 82.9644 49.9998 85.6033Z" fill="#1C1B1F"/>
</g>
</svg>
