<svg width="101" height="101" viewBox="0 0 101 101" fill="none" xmlns="http://www.w3.org/2000/svg">
<mask id="mask0_171_77" style="mask-type:alpha" maskUnits="userSpaceOnUse" x="0" y="0" width="101" height="101">
<rect x="0.8125" y="0.836914" width="100" height="100" fill="#D9D9D9"/>
</mask>
<g mask="url(#mask0_171_77)">
<path d="M25.8123 84.1703C22.3401 84.1703 19.3887 82.955 16.9582 80.5245C14.5276 78.0939 13.3123 75.1425 13.3123 71.6703H4.979V25.837C4.979 23.5453 5.79498 21.5835 7.42692 19.9516C9.05887 18.3196 11.0207 17.5037 13.3123 17.5037H71.6457V34.1703H84.1457L96.6457 50.837V71.6703H88.3123C88.3123 75.1425 87.0971 78.0939 84.6665 80.5245C82.2359 82.955 79.2846 84.1703 75.8123 84.1703C72.3401 84.1703 69.3887 82.955 66.9582 80.5245C64.5276 78.0939 63.3123 75.1425 63.3123 71.6703H38.3123C38.3123 75.1425 37.0971 78.0939 34.6665 80.5245C32.2359 82.955 29.2846 84.1703 25.8123 84.1703ZM25.8123 75.837C26.9929 75.837 27.9825 75.4377 28.7811 74.6391C29.5797 73.8405 29.979 72.8509 29.979 71.6703C29.979 70.4898 29.5797 69.5002 28.7811 68.7016C27.9825 67.903 26.9929 67.5037 25.8123 67.5037C24.6318 67.5037 23.6422 67.903 22.8436 68.7016C22.045 69.5002 21.6457 70.4898 21.6457 71.6703C21.6457 72.8509 22.045 73.8405 22.8436 74.6391C23.6422 75.4377 24.6318 75.837 25.8123 75.837ZM13.3123 63.337H16.6457C17.8262 62.087 19.1804 61.0801 20.7082 60.3162C22.2359 59.5523 23.9373 59.1703 25.8123 59.1703C27.6873 59.1703 29.3887 59.5523 30.9165 60.3162C32.4443 61.0801 33.7984 62.087 34.979 63.337H63.3123V25.837H13.3123V63.337ZM75.8123 75.837C76.9929 75.837 77.9825 75.4377 78.7811 74.6391C79.5797 73.8405 79.979 72.8509 79.979 71.6703C79.979 70.4898 79.5797 69.5002 78.7811 68.7016C77.9825 67.903 76.9929 67.5037 75.8123 67.5037C74.6318 67.5037 73.6422 67.903 72.8436 68.7016C72.045 69.5002 71.6457 70.4898 71.6457 71.6703C71.6457 72.8509 72.045 73.8405 72.8436 74.6391C73.6422 75.4377 74.6318 75.837 75.8123 75.837ZM71.6457 55.0037H89.354L79.979 42.5037H71.6457V55.0037Z" fill="#1C1B1F"/>
</g>
</svg>
